<mxfile host="app.diagrams.net" modified="2023-07-21T20:53:42.951Z" agent="Mozilla/5.0 (Windows NT 10.0; Win64; x64) AppleWebKit/537.36 (KHTML, like Gecko) Chrome/114.0.0.0 Safari/537.36" version="21.6.5" etag="LiCtu-gr9mFfeMzwVDAb" type="github">
  <diagram name="Page-1" id="0itKVrN_AsWDyK1SyDOG">
    <mxGraphModel>
      <root>
        <mxCell id="0" />
        <mxCell id="1" parent="0" />
      </root>
    </mxGraphModel>
  </diagram>
</mxfile>
